<?xml version="1.0" encoding="utf-8"?>
<!-- Generator: Adobe Illustrator 17.0.2, SVG Export Plug-In . SVG Version: 6.00 Build 0)  -->
<!DOCTYPE svg PUBLIC "-//W3C//DTD SVG 1.1//EN" "http://www.w3.org/Graphics/SVG/1.1/DTD/svg11.dtd">
<svg version="1.1" id="Layer_1" xmlns="http://www.w3.org/2000/svg" xmlns:xlink="http://www.w3.org/1999/xlink" x="0px" y="0px"
	 width="800px" height="800px" viewBox="0 0 800 800" style="enable-background:new 0 0 800 800;" xml:space="preserve">
<path style="fill:#FFFFFF;" d="M406,41.001c-188.329,0-341,152.671-341,341s152.671,341,341,341s341-152.671,341-341
	S594.329,41.001,406,41.001z M372.333,592.499c-0.172,1.672-0.672,3.172-1.5,4.5c-0.836,1.328-1.922,2-3.25,2
	c-3,0-6.25-0.086-9.75-0.25c-3.5-0.172-7.25-0.422-11.25-0.75c-5.672-0.672-11.586-1.164-17.75-1.5
	c-6.172-0.328-13.086-0.5-20.75-0.5c-14.672,0-28.5,0.5-41.5,1.5c-5.672,0.328-11,0.664-16,1c-5,0.328-9.836,0.5-14.5,0.5
	c-1.336,0-2.336-0.672-3-2c-0.672-1.328-1.086-2.828-1.25-4.5c-0.172-1.664,0.164-3.164,1-4.5c0.828-1.328,2.078-2.164,3.75-2.5
	c10.328-1,18.414-2.328,24.25-4c5.828-1.664,10.164-4.328,13-8c2.828-3.664,4.537-8.664,5.208-15c0.664-6.328,0.958-15,0.958-26v-93
	c0-18-0.958-30.25-2.958-36.75s-7.151-9.75-15.479-9.75c-3,0-6.911,0.336-11.74,1c-4.836,0.672-10.081,1.5-15.745,2.5
	c-3,0-4.919-1.914-5.747-5.75c-0.836-3.828-0.085-6.414,2.251-7.75c8.328-2.664,16.079-4.828,23.251-6.5
	c7.164-1.664,14.078-3,20.75-4c5.664-1,11.828-2.078,18.5-3.25c6.664-1.164,14.623-3.078,23.959-5.75
	c6.664-1.664,9.959,0.336,9.959,6v163c0,11,0.456,19.672,1.292,26c0.828,6.336,2.685,11.336,5.521,15
	c2.828,3.672,6.924,6.25,12.26,7.75c5.328,1.5,12.669,2.922,22.005,4.25c1.328,0.336,2.417,1.172,3.253,2.5
	C372.159,589.335,372.497,590.835,372.333,592.499z M498.647,412.863c-3.11,4.956-7.096,8.941-11.951,11.952
	c-4.86,3.015-10.398,5.201-16.616,6.559c-6.222,1.357-12.343,2.04-18.364,2.04c-5.056,0-10.689-0.583-16.907-1.749
	c-6.222-1.166-11.659-2.814-16.323-4.955c-1.166-0.388-2.383-0.191-3.645,0.583c-1.266,0.778-2.09,2.236-2.478,4.372
	c0,0.583-0.437,0.971-1.312,1.166c-0.874,0.191-1.799,0.292-2.77,0.292c-0.778,0-1.558-0.146-2.332-0.438
	c-0.778-0.292-1.166-0.729-1.166-1.312c0-1.554,0.191-3.689,0.583-6.413c0.388-2.72,0.583-5.247,0.583-7.579
	s-0.146-4.905-0.437-7.725c-0.292-2.815-0.583-5.584-0.875-8.308c-0.291-2.72-0.537-5.147-0.729-7.288
	c-0.196-2.136-0.292-3.689-0.292-4.664c0-0.774,0.388-1.357,1.166-1.749c0.774-0.387,1.649-0.628,2.624-0.729
	c0.97-0.096,1.895,0,2.77,0.292c0.874,0.292,1.407,0.829,1.603,1.603c1.357,5.639,3.106,10.594,5.247,14.867
	c2.137,4.276,4.81,7.87,8.017,10.785c3.206,2.915,7.092,5.102,11.66,6.559c4.563,1.458,10.057,2.187,16.47,2.187
	c6.996,0,12.68-1.94,17.053-5.83c4.372-3.885,6.559-9.328,6.559-16.324c0-6.217-2.187-11.123-6.559-14.721
	c-4.373-3.594-9.474-6.75-15.304-9.474c-2.724-1.166-5.493-2.332-8.308-3.498c-2.819-1.166-5.685-2.332-8.6-3.498
	c-4.277-1.749-8.504-3.544-12.681-5.393c-4.181-1.845-7.87-4.126-11.077-6.85c-3.206-2.719-5.784-6.122-7.725-10.203
	c-1.944-4.081-2.915-9.132-2.915-15.158c0-6.996,1.503-12.922,4.519-17.782c3.011-4.855,6.896-8.791,11.66-11.806
	c4.76-3.011,10.057-5.197,15.887-6.559c5.83-1.357,11.56-2.041,17.198-2.041c5.438,0,10.248,0.633,14.43,1.895
	c4.177,1.266,8.79,3.548,13.846,6.851c0.774,0.392,1.795,0.341,3.062-0.146c1.261-0.483,2.281-2.086,3.061-4.81
	c0.191-0.774,0.774-1.262,1.749-1.458c0.97-0.191,1.94-0.242,2.915-0.146c0.97,0.1,1.845,0.342,2.623,0.729
	c0.774,0.392,1.066,0.875,0.875,1.458c-0.583,2.141-1.121,4.764-1.604,7.87c-0.487,3.111-0.729,6.413-0.729,9.911
	c0,3.694,0.096,7.534,0.291,11.514c0.191,3.985,0.292,7.046,0.292,9.183c0,0.583-0.392,1.07-1.166,1.458
	c-0.779,0.392-1.653,0.633-2.624,0.729c-0.975,0.1-1.849,0-2.623-0.292c-0.779-0.292-1.267-0.729-1.458-1.312
	c-2.141-10.298-5.639-18.219-10.494-23.757c-4.859-5.539-12.635-8.308-23.319-8.308c-7.192,0-13.118,1.799-17.782,5.393
	c-4.663,3.598-6.995,8.408-6.995,14.429c0,5.056,1.939,8.941,5.829,11.66c3.886,2.724,9.037,5.247,15.45,7.579
	c2.719,0.975,5.976,2.187,9.765,3.644c3.79,1.458,6.851,2.673,9.183,3.644c5.051,2.332,9.766,4.764,14.138,7.288
	c4.372,2.528,8.162,5.493,11.368,8.891c3.207,3.402,5.73,7.242,7.579,11.514c1.845,4.277,2.77,9.232,2.77,14.867
	C503.312,401.741,501.754,407.908,498.647,412.863z M603.003,416.799c-3.693,6.025-8.503,10.303-14.429,12.826
	c-5.931,2.523-12.876,3.789-20.843,3.789c-13.218,0-22.339-2.96-27.776-8.891c-5.443-5.926-7.955-15.203-7.955-27.838V321.77
	c0-2.332-0.308-4.177-0.499-5.539c-0.195-1.357-0.882-2.332-1.853-2.915c-0.975-0.583-2.63-0.92-4.861-1.02
	c-2.236-0.096-5.418-0.146-9.5-0.146c-0.583,0-1.083-0.583-1.471-1.749c-0.392-1.166-0.639-2.428-0.735-3.79
	c-0.1-1.357,0.043-2.624,0.434-3.789c0.387-1.166,0.968-1.749,1.747-1.749c4.855-0.387,9.035-1.116,12.533-2.187
	c3.498-1.066,6.459-2.769,8.89-5.101c2.428-2.332,4.373-5.489,5.83-9.474c1.458-3.98,2.669-9.182,3.644-15.595
	c0.19-1.166,0.97-2.041,2.331-2.624c1.357-0.583,2.815-0.874,4.373-0.874c1.553,0,2.968,0.246,4.233,0.729
	c1.262,0.487,1.901,1.121,1.901,1.895v25.069c0,3.111,0.14,4.893,0.431,5.376c0.292,0.487,1.496,0.713,3.637,0.713h30.316
	c1.357,0,2.231,0.795,2.623,2.348c0.388,1.558,0.583,2.923,0.583,4.089s-0.246,2.507-0.729,4.156
	c-0.487,1.653-1.508,2.407-3.061,2.407h-31.19c-1.362,0-2.134,0.417-2.325,1.095c-0.196,0.683-0.285,3.236-0.285,7.508v65.004
	c0,10.886,1.205,18.948,3.638,24.195c2.427,5.247,6.846,7.87,13.259,7.87c4.468,0,8.694-0.679,12.679-2.04
	c3.98-1.357,7.04-2.814,9.181-4.372c0.583-0.388,1.261-0.438,2.041-0.146c0.774,0.292,1.457,0.779,2.04,1.458
	c0.583,0.683,1.02,1.412,1.311,2.186C603.441,415.537,603.391,416.216,603.003,416.799z"/>
</svg>
