<?xml version="1.0" encoding="utf-8"?>
<!-- Generator: Adobe Illustrator 17.0.2, SVG Export Plug-In . SVG Version: 6.00 Build 0)  -->
<!DOCTYPE svg PUBLIC "-//W3C//DTD SVG 1.1//EN" "http://www.w3.org/Graphics/SVG/1.1/DTD/svg11.dtd">
<svg version="1.1" xmlns="http://www.w3.org/2000/svg" xmlns:xlink="http://www.w3.org/1999/xlink" x="0px" y="0px" width="1600px"
	 height="1600px" viewBox="0 0 1600 1600" style="enable-background:new 0 0 1600 1600;" xml:space="preserve">
<g id="Layer_2" style="display:none;">
	<rect x="-59.5" y="-11.5" style="display:inline;stroke:#FFFFFF;stroke-miterlimit:10;" width="1768" height="1650"/>
</g>
<g id="Layer_1">
	<g>
		<path style="fill:#FFFFFF;" d="M1144,1028c0,202.95-166.05,369-369,369l0,0c-202.95,0-369-166.05-369-369V442
			c0-202.95,166.05-369,369-369l0,0c202.95,0,369,166.05,369,369V1028z"/>
	</g>
	<rect x="406" y="621" style="fill:#FFFFFF;" width="738" height="776"/>
	<g>
		<path style="fill:#FFFFFF;" d="M1275,1255.5c0,84.425-90,153.5-200,153.5H475c-110,0-200-69.075-200-153.5S365,1102,475,1102h600
			C1185,1102,1275,1171.075,1275,1255.5z"/>
	</g>
	<circle style="fill:#FFFFFF;" cx="775" cy="73" r="54.923"/>
</g>
</svg>
