<?xml version="1.0" encoding="utf-8"?>
<!-- Generator: Adobe Illustrator 17.0.2, SVG Export Plug-In . SVG Version: 6.00 Build 0)  -->
<!DOCTYPE svg PUBLIC "-//W3C//DTD SVG 1.1//EN" "http://www.w3.org/Graphics/SVG/1.1/DTD/svg11.dtd">
<svg version="1.1" xmlns="http://www.w3.org/2000/svg" xmlns:xlink="http://www.w3.org/1999/xlink" x="0px" y="0px" width="1000px"
	 height="1390.923px" viewBox="0 0 1000 1390.923" style="enable-background:new 0 0 1000 1390.923;" xml:space="preserve">
<g id="Layer_2" style="display:none;">
	<rect x="-334.5" y="-29.577" style="display:inline;stroke:#FFFFFF;stroke-miterlimit:10;" width="1768" height="1650"/>
</g>
<g id="Layer_1">
	<g>
		<path style="fill:#FFFFFF;" d="M869,1009.923c0,202.95-166.05,369-369,369l0,0c-202.95,0-369-166.05-369-369v-586
			c0-202.95,166.05-369,369-369l0,0c202.95,0,369,166.05,369,369V1009.923z"/>
	</g>
	<rect x="131" y="602.923" style="fill:#FFFFFF;" width="738" height="776"/>
	<g>
		<path style="fill:#FFFFFF;" d="M1000,1237.423c0,84.425-90,153.5-200,153.5H200c-110,0-200-69.075-200-153.5
			c0-84.425,90-153.5,200-153.5h600C910,1083.923,1000,1152.998,1000,1237.423z"/>
	</g>
	<circle style="fill:#FFFFFF;" cx="500" cy="54.923" r="54.923"/>
</g>
</svg>
