<?xml version="1.0" encoding="utf-8"?>
<!-- Generator: Adobe Illustrator 17.0.2, SVG Export Plug-In . SVG Version: 6.00 Build 0)  -->
<!DOCTYPE svg PUBLIC "-//W3C//DTD SVG 1.1//EN" "http://www.w3.org/Graphics/SVG/1.1/DTD/svg11.dtd">
<svg version="1.1" id="svg2" xmlns:svg="http://www.w3.org/2000/svg"
	 xmlns="http://www.w3.org/2000/svg" xmlns:xlink="http://www.w3.org/1999/xlink" x="0px" y="0px" width="645px" height="585px"
	 viewBox="0 0 645 585" style="enable-background:new 0 0 645 585;" xml:space="preserve">
<g id="layer1">
	<path id="path2417" style="fill:#FFFFFF;" d="M297.297,550.868c-13.775-15.436-48.171-45.53-76.435-66.874
		c-83.744-63.242-95.142-72.394-129.144-103.703c-62.685-57.72-89.306-115.71-89.214-194.34c0.045-38.384,2.661-53.172,13.41-75.797
		c18.237-38.386,45.1-66.909,79.445-84.355c24.325-12.356,36.323-17.845,76.944-18.07c42.493-0.235,51.439,4.72,76.435,18.452
		c30.424,16.714,61.74,52.436,68.213,77.811l3.998,15.672l9.86-21.585c55.716-121.973,233.598-120.148,295.502,3.032
		c19.638,39.076,21.794,122.513,4.38,169.513c-22.715,61.309-65.38,108.051-164.006,179.677
		c-64.681,46.974-137.885,118.046-142.981,128.028C317.79,589.917,323.423,580.145,297.297,550.868z"/>
	<g id="g2221" transform="translate(129.28571,-64.285714)">
	</g>
</g>
</svg>
