<?xml version="1.0" encoding="utf-8"?>
<!-- Generator: Adobe Illustrator 17.0.2, SVG Export Plug-In . SVG Version: 6.00 Build 0)  -->
<!DOCTYPE svg PUBLIC "-//W3C//DTD SVG 1.1//EN" "http://www.w3.org/Graphics/SVG/1.1/DTD/svg11.dtd">
<svg version="1.1" id="Layer_1" xmlns="http://www.w3.org/2000/svg" xmlns:xlink="http://www.w3.org/1999/xlink" x="0px" y="0px"
	 width="50px" height="50px" viewBox="0 0 50 50" style="enable-background:new 0 0 50 50;" xml:space="preserve">
<path style="fill:#FFFFFF;" d="M48.4,19.199l-10.142-3.253l-1.008,3.143l4.23,1.357l-9.076,3.67
	c-2.031-2.477-4.834-4.157-8.018-4.783c-0.901-0.178-1.806-0.265-2.704-0.265c-2.72,0-5.379,0.805-7.688,2.355
	c-3.072,2.062-5.157,5.197-5.871,8.827s0.028,7.32,2.09,10.393c2.669,3.976,7.053,6.126,11.517,6.126c0.001,0,0.002,0,0.003,0
	c2.653,0,5.335-0.76,7.699-2.346c5.343-3.586,7.503-10.292,5.265-16.321l8.839-4.545l-1.533,4.777l3.143,1.008L48.4,19.199z
	 M27.594,41.681c-1.8,1.208-3.843,1.787-5.864,1.787c-3.401,0-6.742-1.637-8.775-4.667c-1.571-2.34-2.136-5.151-1.592-7.916
	s2.132-5.152,4.472-6.723c1.759-1.181,3.785-1.793,5.857-1.793c0.684,0,1.373,0.067,2.059,0.202c2.733,0.538,5.097,2.095,6.667,4.39
	l1.207,2.344C33.297,33.882,31.647,38.96,27.594,41.681z"/>
<g>
	<path style="fill:#FFFFFF;" d="M20.586,42.397c4.063-1.32,7.468-4.492,8.9-8.852c0.531-1.619,0.744-3.272,0.68-4.891l-0.607-1.179
		c-1.005-1.449-2.368-2.561-3.944-3.263c1.341,2.48,1.67,5.462,0.737,8.304c-1.602,4.876-6.44,7.795-11.352,7.171
		C16.503,41.18,18.459,42.144,20.586,42.397z"/>
	<path style="fill:#FFFFFF;" d="M9.384,41.198C7.916,39.01,7.087,36.529,6.91,33.97c-1.214-2.408-1.513-5.278-0.607-8.036
		c0.879-2.677,2.748-4.852,5.263-6.124c1.498-0.757,3.118-1.141,4.75-1.141c0.341,0,0.682,0.023,1.022,0.056
		c1.401-0.434,2.863-0.659,4.347-0.659c0.966,0,1.94,0.096,2.897,0.284c0.148,0.029,0.291,0.071,0.438,0.104
		c-0.45-0.362-0.917-0.707-1.42-1.017l4.174-9.02l1.729,4.709l3.098-1.138l-3.671-9.997l-9.998,3.672l1.138,3.098l4.17-1.532
		l-4.899,8.476c-3.125-0.704-6.369-0.305-9.264,1.16c-3.301,1.669-5.755,4.524-6.909,8.04c-1.154,3.515-0.87,7.269,0.8,10.571
		c1.233,2.438,3.116,4.409,5.43,5.74C9.393,41.21,9.388,41.204,9.384,41.198z"/>
	<path style="fill:#FFFFFF;" d="M16.315,43.076c0.703,0,1.399-0.057,2.085-0.162c-1.945-0.642-3.708-1.852-5.032-3.575
		c-0.111-0.032-0.222-0.055-0.333-0.091c-1.968-0.646-3.61-1.826-4.837-3.318c0.37,1.66,1.04,3.255,2.016,4.71
		c0.362,0.539,0.761,1.038,1.182,1.51c0.204,0.077,0.402,0.165,0.61,0.234C13.436,42.854,14.887,43.076,16.315,43.076z"/>
	<path style="fill:#FFFFFF;" d="M21.684,19.067c-0.689,0-1.374,0.053-2.05,0.155l2.281,1.055c1.099,0.687,2.03,1.549,2.783,2.527
		c2.027,0.594,3.805,1.769,5.146,3.398c-0.513-2.302-1.611-4.45-3.217-6.231c-0.721-0.272-1.468-0.488-2.239-0.64
		C23.487,19.154,22.582,19.067,21.684,19.067z"/>
</g>
</svg>
