<?xml version="1.0" encoding="utf-8"?>
<!-- Generator: Adobe Illustrator 17.0.2, SVG Export Plug-In . SVG Version: 6.00 Build 0)  -->
<!DOCTYPE svg PUBLIC "-//W3C//DTD SVG 1.1//EN" "http://www.w3.org/Graphics/SVG/1.1/DTD/svg11.dtd">
<svg version="1.1"
	 id="svg3025" inkscape:version="0.48.3.1 r9886" sodipodi:docname="stethoscope_font_awesome.svg" xmlns:rdf="http://www.w3.org/1999/02/22-rdf-syntax-ns#" xmlns:cc="http://creativecommons.org/ns#" xmlns:svg="http://www.w3.org/2000/svg" xmlns:dc="http://purl.org/dc/elements/1.1/" xmlns:inkscape="http://www.inkscape.org/namespaces/inkscape" xmlns:sodipodi="http://sodipodi.sourceforge.net/DTD/sodipodi-0.dtd"
	 xmlns="http://www.w3.org/2000/svg" xmlns:xlink="http://www.w3.org/1999/xlink" x="0px" y="0px" width="1257.143px"
	 height="1371.429px" viewBox="183.051 114.286 1257.143 1371.429"
	 style="enable-background:new 183.051 114.286 1257.143 1371.429;" xml:space="preserve">
<sodipodi:namedview  inkscape:window-height="480" inkscape:pageopacity="0" inkscape:pageshadow="2" inkscape:window-width="640" inkscape:window-x="0" inkscape:window-y="25" inkscape:window-maximized="0" inkscape:current-layer="svg3025" id="namedview3031" guidetolerance="10" pagecolor="#ffffff" inkscape:zoom="0.13169643" inkscape:cy="896" objecttolerance="10" bordercolor="#666666" showgrid="false" borderopacity="1" inkscape:cx="896" gridtolerance="10">
	</sodipodi:namedview>
<g id="g3027" transform="matrix(1,0,0,-1,205.01695,1262.6441)">
	<path id="path3029" inkscape:connector-curvature="0" style="fill:#FFFFFF;" d="M1120.891,634.073
		c0,15.476-5.655,28.869-16.964,40.179c-11.31,11.31-24.702,16.964-40.179,16.964s-28.869-5.655-40.179-16.964
		c-11.309-11.31-16.964-24.702-16.964-40.179c0-15.476,5.655-28.869,16.964-40.179c11.309-11.31,24.702-16.964,40.179-16.964
		s28.869,5.655,40.179,16.964C1115.236,605.204,1120.891,618.596,1120.891,634.073z M1235.177,634.073
		c0-36.905-10.566-69.94-31.696-99.107c-21.131-29.167-48.661-50-82.589-62.5V119.787c0-94.643-39.137-175.446-117.411-242.411
		S831.01-223.07,720.891-223.07s-204.315,33.482-282.589,100.446S320.891,25.144,320.891,119.787v117.857
		c-97.619,11.905-179.167,50-244.643,114.286s-98.214,139.286-98.214,225v457.143c0,15.476,5.655,28.869,16.964,40.179
		c11.31,11.309,24.702,16.964,40.179,16.964c3.571,0,8.333-0.595,14.286-1.786c10.119,17.857,24.107,32.143,41.964,42.857
		c17.857,10.714,37.202,16.071,58.036,16.071c31.548,0,58.482-11.161,80.804-33.482s33.482-49.256,33.482-80.804
		c0-31.548-11.161-58.482-33.482-80.804s-49.256-33.482-80.804-33.482c-19.643,0-38.69,5.357-57.143,16.071V576.93
		c0-63.095,27.976-116.964,83.929-161.607s123.214-66.964,201.786-66.964s145.833,22.321,201.786,66.964
		s83.929,98.512,83.929,161.607v358.929c-18.452-10.714-37.5-16.071-57.143-16.071c-31.548,0-58.482,11.161-80.804,33.482
		c-22.321,22.321-33.482,49.256-33.482,80.804c0,31.548,11.161,58.482,33.482,80.804c22.321,22.321,49.256,33.482,80.804,33.482
		c20.833,0,40.179-5.357,58.036-16.071c17.857-10.714,31.845-25,41.964-42.857c5.952,1.19,10.714,1.786,14.286,1.786
		c15.476,0,28.869-5.655,40.179-16.964c11.31-11.31,16.964-24.702,16.964-40.179V576.93c0-85.714-32.738-160.714-98.214-225
		S532.796,249.549,435.177,237.644V119.787c0-63.095,27.976-116.964,83.929-161.607c55.952-44.643,123.214-66.964,201.786-66.964
		S866.724-86.463,922.677-41.82c55.952,44.643,83.929,98.512,83.929,161.607v352.679c-33.929,12.5-61.458,33.333-82.589,62.5
		c-21.131,29.167-31.696,62.202-31.696,99.107c0,47.619,16.667,88.095,50,121.429s73.81,50,121.429,50
		c47.619,0,88.095-16.667,121.429-50S1235.177,681.692,1235.177,634.073z"/>
</g>
</svg>
