<?xml version="1.0" encoding="utf-8"?>
<!-- Generator: Adobe Illustrator 17.0.2, SVG Export Plug-In . SVG Version: 6.00 Build 0)  -->
<!DOCTYPE svg PUBLIC "-//W3C//DTD SVG 1.1//EN" "http://www.w3.org/Graphics/SVG/1.1/DTD/svg11.dtd">
<svg version="1.1" id="Layer_1" xmlns="http://www.w3.org/2000/svg" xmlns:xlink="http://www.w3.org/1999/xlink" x="0px" y="0px"
	 width="400px" height="400px" viewBox="0 0 400 400" style="enable-background:new 0 0 400 400;" xml:space="preserve">
<g>
	<g style="opacity:0.25;">
		<rect x="200" y="200" style="fill:#FFFFFF;" width="0" height="0"/>
		<rect x="200" y="200" style="fill:#FFFFFF;" width="0" height="0"/>
		<rect x="200" y="200" style="fill:#FFFFFF;" width="0" height="0"/>
		<polygon style="fill:#FFFFFF;" points="200,200 200,200 200,200 		"/>
		<polygon style="fill:#FFFFFF;" points="200,200 200,200 200,200 		"/>
		<polygon style="fill:#FFFFFF;" points="200,200 200,200 200,200 		"/>
		<polygon style="fill:#FFFFFF;" points="200,200 200,200 200,200 		"/>
		<polygon style="fill:#FFFFFF;" points="200,200 200,200 200,200 		"/>
		<polygon style="fill:#FFFFFF;" points="200,200 200,200 200,200 		"/>
		<polygon style="fill:#FFFFFF;" points="200,200 200,200 200,200 		"/>
		<rect x="200" y="200" style="fill:#FFFFFF;" width="0" height="0"/>
		<polygon style="fill:#FFFFFF;" points="200,200 200,200 200,200 		"/>
		<rect x="200" y="200" style="fill:#FFFFFF;" width="0" height="0"/>
		<rect x="200" y="200" style="fill:#FFFFFF;" width="0" height="0"/>
		<rect x="200" y="200" style="fill:#FFFFFF;" width="0" height="0"/>
		<polygon style="fill:#FFFFFF;" points="200,200 200,200 200,200 		"/>
		<polygon style="fill:#FFFFFF;" points="200,200 200,200 200,200 		"/>
		<polygon style="fill:#FFFFFF;" points="200,200 200,200 200,200 		"/>
		<polygon style="fill:#FFFFFF;" points="200,200 200,200 200,200 		"/>
		<rect x="200" y="200" style="fill:#FFFFFF;" width="0" height="0"/>
		<rect x="200" y="200" style="fill:#FFFFFF;" width="0" height="0"/>
		<rect x="200" y="200" style="fill:#FFFFFF;" width="0" height="0"/>
		<rect x="200" y="200" style="fill:#FFFFFF;" width="0" height="0"/>
		<polygon style="fill:#FFFFFF;" points="200,200 200,200 200,200 		"/>
		<polygon style="fill:#FFFFFF;" points="200,200 200,200 200,200 		"/>
		<path style="fill:#FFFFFF;" d="M28.089,299.253c8.713,15.059,19.344,28.871,31.566,41.093L200,200L28.089,299.253z"/>
		<path style="fill:#FFFFFF;" d="M28.089,100.747c-8.591,14.848-15.305,30.915-19.838,47.874L200,200L28.089,100.747z"/>
		<path style="fill:#FFFFFF;" d="M100.747,371.911c14.848,8.591,30.915,15.305,47.874,19.838L200,200L100.747,371.911z"/>
		<path style="fill:#FFFFFF;" d="M1.521,201c0,17,2.349,34.99,6.729,51.379L200,201H1.521z"/>
		<polygon style="fill:#FFFFFF;" points="200,200 200,200 200,200 		"/>
		<path style="fill:#FFFFFF;" d="M200,200L200,200L200,200l171.911,99.253c8.591-14.848,15.305-30.915,19.838-47.874L200,200z"/>
		<path style="fill:#FFFFFF;" d="M199,398.479c18,0,34.99-2.349,51.379-6.729L199,200V398.479z"/>
		<path style="fill:#FFFFFF;" d="M200,200l99.253,171.911c15.059-8.713,28.871-19.344,41.093-31.566L200,200L200,200z"/>
		<path style="fill:#FFFFFF;" d="M200,200.25V201h198.479c0-18-2.349-35.49-6.729-51.879L200,200.375V200.25z"/>
		<path style="fill:#FFFFFF;" d="M200,200L200,200l171.911-99.253c-8.713-15.059-19.344-28.871-31.566-41.093L200,200L200,200z"/>
		<rect x="200" y="200" style="fill:#FFFFFF;" width="0" height="0"/>
		<polygon style="fill:#FFFFFF;" points="200,200 200,200 200,200 		"/>
		<path style="fill:#FFFFFF;" d="M200,200l99.253-171.911c-14.848-8.591-30.915-15.305-47.874-19.838L200,200L200,200z"/>
		<path style="fill:#FFFFFF;" d="M100.747,28.089c-15.059,8.713-28.871,19.344-41.093,31.566L200,200L100.747,28.089z"/>
		<path style="fill:#FFFFFF;" d="M199,200V1.521c-17,0-34.99,2.349-51.379,6.729L199,200L199,200z"/>
	</g>
	<g style="opacity:0.5;">
		<path style="fill:#FFFFFF;" d="M391.749,251.379c4.381-16.389,6.729-33.609,6.729-51.379H200L391.749,251.379z"/>
		<path style="fill:#FFFFFF;" d="M148.621,391.749c16.389,4.381,33.609,6.729,51.379,6.729V200L148.621,391.749z"/>
		<path style="fill:#FFFFFF;" d="M200,200L59.654,340.346c12.222,12.222,26.033,22.852,41.093,31.566L200,200L200,200z"/>
		<path style="fill:#FFFFFF;" d="M200,200L200,200L8.251,251.379c4.533,16.959,11.247,33.026,19.838,47.874L200,200L200,200z"/>
		<path style="fill:#FFFFFF;" d="M340.346,340.346c12.222-12.222,22.852-26.033,31.566-41.093L200,200L340.346,340.346z"/>
		<path style="fill:#FFFFFF;" d="M251.379,391.749c16.959-4.533,33.026-11.247,47.874-19.838L200,200L251.379,391.749z"/>
		<path style="fill:#FFFFFF;" d="M200,200L200,200L8.251,148.621C3.87,165.01,1.521,182.23,1.521,200H200L200,200z"/>
		<path style="fill:#FFFFFF;" d="M391.749,148.621c-4.533-16.959-11.247-33.026-19.838-47.874L200,200L391.749,148.621z"/>
		<path style="fill:#FFFFFF;" d="M340.346,59.654c-12.222-12.222-26.033-22.852-41.093-31.566L200,200L340.346,59.654z"/>
		<path style="fill:#FFFFFF;" d="M200,200L251.379,8.251C234.99,3.87,217.77,1.521,200,1.521V200L200,200z"/>
		<path style="fill:#FFFFFF;" d="M200,200L148.621,8.251c-16.959,4.533-33.026,11.247-47.874,19.838L200,200L200,200z"/>
		<path style="fill:#FFFFFF;" d="M200,200L200,200L59.654,59.654c-12.222,12.222-22.852,26.033-31.566,41.093L200,200L200,200z"/>
	</g>
</g>
<text transform="matrix(0.9914 -0.1305 0.1305 0.9914 168.1277 35.4456)" style="fill:#FFFFFF; font-family:'Arial-BoldMT'; font-size:34;">?</text>
<text transform="matrix(0.7934 -0.6088 0.6088 0.7934 90.1201 73.4279)" style="fill:#FFFFFF; font-family:'Arial-BoldMT'; font-size:34;">?</text>
<text transform="matrix(0.3827 -0.9239 0.9239 0.3827 41.555 145.3252)" style="fill:#FFFFFF; font-family:'Arial-BoldMT'; font-size:34;">?</text>
<text transform="matrix(-0.1305 -0.9914 0.9914 -0.1305 35.4451 231.873)" style="fill:#FFFFFF; font-family:'Arial-BoldMT'; font-size:34;">?</text>
<text transform="matrix(-0.6088 -0.7934 0.7934 -0.6088 73.4279 309.8796)" style="fill:#FFFFFF; font-family:'Arial-BoldMT'; font-size:34;">?</text>
<text transform="matrix(-0.9239 -0.3827 0.3827 -0.9239 145.3252 358.445)" style="fill:#FFFFFF; font-family:'Arial-BoldMT'; font-size:34;">?</text>
<text transform="matrix(-0.9914 0.1305 -0.1305 -0.9914 231.873 364.5548)" style="fill:#FFFFFF; font-family:'Arial-BoldMT'; font-size:34;">?</text>
<text transform="matrix(-0.7934 0.6088 -0.6088 -0.7934 309.8796 326.5721)" style="fill:#FFFFFF; font-family:'Arial-BoldMT'; font-size:34;">?</text>
<text transform="matrix(-0.3827 0.9239 -0.9239 -0.3827 358.445 254.6746)" style="fill:#FFFFFF; font-family:'Arial-BoldMT'; font-size:34;">?</text>
<text transform="matrix(0.1305 0.9914 -0.9914 0.1305 364.5548 168.127)" style="fill:#FFFFFF; font-family:'Arial-BoldMT'; font-size:34;">?</text>
<text transform="matrix(0.6088 0.7934 -0.7934 0.6088 326.5721 90.1201)" style="fill:#FFFFFF; font-family:'Arial-BoldMT'; font-size:34;">?</text>
<text transform="matrix(0.9239 0.3827 -0.3827 0.9239 254.6746 41.555)" style="fill:#FFFFFF; font-family:'Arial-BoldMT'; font-size:34;">?</text>
<g>
	<polygon style="fill:#FFFFFF;" points="225.964,8.33 229.357,18.316 239.507,21.182 231.058,27.494 231.469,38.033 222.854,31.949 
		212.958,35.596 216.083,25.523 209.556,17.238 220.102,17.097 	"/>
	<polygon style="fill:#FFFFFF;" points="126.65,21.027 134.582,27.978 144.805,25.385 140.645,35.077 146.27,43.998 135.767,43.036 
		129.02,51.143 126.69,40.857 116.895,36.946 125.957,31.551 	"/>
	<polygon style="fill:#FFFFFF;" points="46.991,81.679 57.335,83.734 64.892,76.377 66.135,86.85 75.467,91.764 65.891,96.182 
		64.101,106.576 56.94,98.833 46.502,100.343 51.652,91.14 	"/>
	<polygon style="fill:#FFFFFF;" points="8.33,174.036 18.316,170.643 21.182,160.493 27.494,168.942 38.033,168.531 31.949,177.146 
		35.596,187.042 25.523,183.917 17.238,190.444 17.097,179.898 	"/>
	<polygon style="fill:#FFFFFF;" points="21.027,273.35 27.978,265.418 25.385,255.195 35.077,259.355 43.998,253.73 43.036,264.233 
		51.143,270.98 40.857,273.31 36.946,283.105 31.551,274.043 	"/>
	<polygon style="fill:#FFFFFF;" points="81.679,353.009 83.734,342.665 76.377,335.108 86.85,333.865 91.764,324.533 
		96.182,334.109 106.576,335.899 98.833,343.06 100.343,353.498 91.14,348.348 	"/>
	<polygon style="fill:#FFFFFF;" points="174.036,391.67 170.643,381.684 160.493,378.818 168.942,372.505 168.531,361.967 
		177.146,368.051 187.042,364.404 183.917,374.477 190.444,382.762 179.898,382.903 	"/>
	<polygon style="fill:#FFFFFF;" points="273.35,378.973 265.418,372.022 255.195,374.615 259.355,364.923 253.73,356.002 
		264.233,356.964 270.98,348.857 273.31,359.143 283.105,363.054 274.043,368.449 	"/>
	<polygon style="fill:#FFFFFF;" points="353.009,318.321 342.665,316.266 335.108,323.623 333.865,313.15 324.533,308.236 
		334.109,303.818 335.899,293.424 343.06,301.167 353.498,299.657 348.348,308.86 	"/>
	<polygon style="fill:#FFFFFF;" points="391.67,225.964 381.684,229.357 378.818,239.507 372.505,231.058 361.967,231.469 
		368.051,222.854 364.404,212.958 374.477,216.083 382.762,209.556 382.903,220.102 	"/>
	<polygon style="fill:#FFFFFF;" points="378.973,126.65 372.022,134.582 374.615,144.805 364.923,140.645 356.002,146.27 
		356.964,135.767 348.857,129.02 359.143,126.69 363.054,116.895 368.449,125.957 	"/>
	<polygon style="fill:#FFFFFF;" points="318.321,46.991 316.266,57.335 323.623,64.892 313.15,66.135 308.236,75.467 
		303.818,65.891 293.424,64.101 301.167,56.94 299.657,46.502 308.86,51.652 	"/>
</g>
<g>
	<polygon style="fill:#FFFFFF;" points="221.446,41.685 224.248,49.933 232.632,52.301 225.653,57.515 225.993,66.22 
		218.877,61.194 210.703,64.207 213.284,55.886 207.893,49.044 216.604,48.927 	"/>
	<polygon style="fill:#FFFFFF;" points="139.415,52.173 145.966,57.914 154.41,55.773 150.974,63.778 155.62,71.146 146.945,70.352 
		141.373,77.048 139.448,68.552 131.357,65.321 138.843,60.865 	"/>
	<polygon style="fill:#FFFFFF;" points="73.618,102.27 82.163,103.967 88.404,97.89 89.431,106.541 97.139,110.6 89.229,114.249 
		87.751,122.834 81.836,116.439 73.214,117.686 77.469,110.084 	"/>
	<polygon style="fill:#FFFFFF;" points="41.685,178.554 49.933,175.752 52.301,167.368 57.515,174.347 66.22,174.007 
		61.194,181.123 64.207,189.297 55.886,186.716 49.044,192.107 48.927,183.396 	"/>
	<polygon style="fill:#FFFFFF;" points="52.173,260.585 57.914,254.034 55.773,245.59 63.778,249.026 71.146,244.38 70.352,253.055 
		77.048,258.627 68.552,260.552 65.321,268.643 60.865,261.157 	"/>
	<polygon style="fill:#FFFFFF;" points="102.27,326.382 103.967,317.837 97.89,311.596 106.541,310.569 110.6,302.861 
		114.249,310.771 122.834,312.249 116.439,318.164 117.686,326.786 110.084,322.531 	"/>
	<polygon style="fill:#FFFFFF;" points="178.554,358.315 175.752,350.067 167.368,347.699 174.347,342.485 174.007,333.78 
		181.123,338.806 189.297,335.793 186.716,344.113 192.107,350.956 183.396,351.073 	"/>
	<polygon style="fill:#FFFFFF;" points="260.585,347.827 254.034,342.086 245.59,344.227 249.026,336.222 244.38,328.854 
		253.055,329.648 258.627,322.952 260.552,331.448 268.643,334.678 261.157,339.135 	"/>
	<polygon style="fill:#FFFFFF;" points="326.382,297.73 317.837,296.033 311.596,302.11 310.569,293.459 302.861,289.4 
		310.771,285.751 312.249,277.166 318.164,283.561 326.786,282.314 322.531,289.916 	"/>
	<polygon style="fill:#FFFFFF;" points="358.315,221.446 350.067,224.248 347.699,232.632 342.485,225.653 333.78,225.993 
		338.806,218.877 335.793,210.703 344.113,213.284 350.956,207.893 351.073,216.604 	"/>
	<polygon style="fill:#FFFFFF;" points="347.827,139.415 342.086,145.966 344.227,154.41 336.222,150.974 328.854,155.62 
		329.648,146.945 322.952,141.373 331.448,139.448 334.678,131.357 339.135,138.843 	"/>
	<polygon style="fill:#FFFFFF;" points="297.73,73.618 296.033,82.163 302.11,88.404 293.459,89.431 289.4,97.139 285.751,89.229 
		277.166,87.751 283.561,81.836 282.314,73.214 289.916,77.469 	"/>
</g>
<g>
	<polygon style="fill:#FFFFFF;" points="217.713,69.237 220.028,76.049 226.953,78.005 221.189,82.312 221.469,89.501 
		215.592,85.351 208.841,87.839 210.972,80.967 206.519,75.315 213.714,75.218 	"/>
	<polygon style="fill:#FFFFFF;" points="149.959,77.899 155.37,82.642 162.344,80.873 159.506,87.484 163.344,93.571 
		156.178,92.915 151.576,98.445 149.985,91.428 143.303,88.76 149.486,85.079 	"/>
	<polygon style="fill:#FFFFFF;" points="95.612,119.278 102.67,120.68 107.825,115.661 108.673,122.806 115.04,126.158 
		108.507,129.172 107.286,136.263 102.4,130.981 95.279,132.011 98.793,125.732 	"/>
	<polygon style="fill:#FFFFFF;" points="69.237,182.287 76.049,179.972 78.005,173.047 82.312,178.811 89.501,178.531 
		85.351,184.408 87.839,191.159 80.967,189.028 75.315,193.481 75.218,186.286 	"/>
	<polygon style="fill:#FFFFFF;" points="77.899,250.041 82.642,244.63 80.873,237.656 87.484,240.494 93.571,236.656 
		92.915,243.822 98.445,248.424 91.428,250.015 88.76,256.697 85.079,250.514 	"/>
	<polygon style="fill:#FFFFFF;" points="119.278,304.388 120.68,297.33 115.661,292.175 122.806,291.327 126.158,284.96 
		129.172,291.493 136.263,292.714 130.981,297.6 132.011,304.721 125.732,301.207 	"/>
	<polygon style="fill:#FFFFFF;" points="182.287,330.763 179.972,323.951 173.047,321.995 178.811,317.688 178.531,310.499 
		184.408,314.649 191.159,312.161 189.028,319.033 193.481,324.685 186.286,324.782 	"/>
	<polygon style="fill:#FFFFFF;" points="250.041,322.101 244.63,317.358 237.656,319.127 240.494,312.516 236.656,306.429 
		243.822,307.085 248.424,301.555 250.015,308.572 256.697,311.24 250.514,314.921 	"/>
	<polygon style="fill:#FFFFFF;" points="304.388,280.722 297.33,279.32 292.175,284.34 291.327,277.194 284.96,273.842 
		291.493,270.828 292.714,263.737 297.6,269.019 304.721,267.989 301.207,274.268 	"/>
	<polygon style="fill:#FFFFFF;" points="330.763,217.713 323.951,220.028 321.995,226.953 317.688,221.189 310.499,221.469 
		314.649,215.592 312.161,208.841 319.033,210.972 324.685,206.519 324.782,213.714 	"/>
	<polygon style="fill:#FFFFFF;" points="322.101,149.959 317.358,155.37 319.127,162.344 312.516,159.506 306.429,163.344 
		307.085,156.178 301.555,151.576 308.572,149.985 311.24,143.303 314.921,149.486 	"/>
	<polygon style="fill:#FFFFFF;" points="280.722,95.612 279.32,102.67 284.34,107.825 277.194,108.673 273.842,115.04 
		270.828,108.507 263.737,107.286 269.019,102.4 267.989,95.279 274.268,98.793 	"/>
</g>
<g>
	<polygon style="fill:#FFFFFF;" points="214.631,91.993 216.543,97.621 222.262,99.236 217.501,102.793 217.733,108.732 
		212.878,105.303 207.302,107.358 209.063,101.682 205.385,97.014 211.327,96.934 	"/>
	<polygon style="fill:#FFFFFF;" points="158.667,99.148 163.137,103.065 168.897,101.604 166.553,107.066 169.723,112.093 
		163.805,111.551 160.003,116.119 158.689,110.323 153.17,108.119 158.277,105.079 	"/>
	<polygon style="fill:#FFFFFF;" points="113.779,133.326 119.608,134.484 123.867,130.338 124.567,136.24 129.826,139.009 
		124.429,141.498 123.421,147.355 119.385,142.992 113.504,143.843 116.406,138.657 	"/>
	<polygon style="fill:#FFFFFF;" points="91.993,185.369 97.621,183.457 99.236,177.738 102.793,182.499 108.732,182.267 
		105.303,187.122 107.358,192.698 101.682,190.937 97.014,194.615 96.934,188.673 	"/>
	<polygon style="fill:#FFFFFF;" points="99.148,241.333 103.065,236.863 101.604,231.103 107.066,233.447 112.093,230.277 
		111.551,236.195 116.119,239.997 110.323,241.311 108.119,246.83 105.079,241.723 	"/>
	<polygon style="fill:#FFFFFF;" points="133.326,286.221 134.484,280.392 130.338,276.133 136.24,275.433 139.009,270.174 
		141.498,275.571 147.355,276.579 142.992,280.615 143.843,286.496 138.657,283.594 	"/>
	<polygon style="fill:#FFFFFF;" points="185.369,308.007 183.457,302.379 177.738,300.764 182.499,297.207 182.267,291.268 
		187.122,294.697 192.698,292.642 190.937,298.318 194.615,302.986 188.673,303.066 	"/>
	<polygon style="fill:#FFFFFF;" points="241.333,300.852 236.863,296.935 231.103,298.396 233.447,292.934 230.277,287.907 
		236.195,288.449 239.997,283.881 241.311,289.677 246.83,291.881 241.723,294.921 	"/>
	<polygon style="fill:#FFFFFF;" points="286.221,266.674 280.392,265.516 276.133,269.662 275.433,263.76 270.174,260.991 
		275.571,258.502 276.579,252.645 280.615,257.008 286.496,256.157 283.594,261.343 	"/>
	<polygon style="fill:#FFFFFF;" points="308.007,214.631 302.379,216.543 300.764,222.262 297.207,217.501 291.268,217.733 
		294.697,212.878 292.642,207.302 298.318,209.063 302.986,205.385 303.066,211.327 	"/>
	<polygon style="fill:#FFFFFF;" points="300.852,158.667 296.935,163.137 298.396,168.897 292.934,166.553 287.907,169.723 
		288.449,163.805 283.881,160.003 289.677,158.689 291.881,153.17 294.921,158.277 	"/>
	<polygon style="fill:#FFFFFF;" points="266.674,113.779 265.516,119.608 269.662,123.867 263.76,124.567 260.991,129.826 
		258.502,124.429 252.645,123.421 257.008,119.385 256.157,113.504 261.343,116.406 	"/>
</g>
<g>
	<polygon style="fill:#FFFFFF;" points="212.085,110.79 213.664,115.438 218.388,116.772 214.456,119.71 214.647,124.615 
		210.637,121.783 206.031,123.481 207.486,118.792 204.448,114.936 209.356,114.871 	"/>
	<polygon style="fill:#FFFFFF;" points="165.86,116.699 169.552,119.935 174.31,118.728 172.374,123.239 174.992,127.391 
		170.104,126.944 166.964,130.717 165.879,125.929 161.32,124.109 165.538,121.598 	"/>
	<polygon style="fill:#FFFFFF;" points="128.784,144.929 133.599,145.886 137.116,142.461 137.695,147.336 142.038,149.623 
		137.581,151.679 136.748,156.517 133.415,152.913 128.557,153.616 130.954,149.333 	"/>
	<polygon style="fill:#FFFFFF;" points="110.79,187.915 115.438,186.336 116.772,181.612 119.71,185.544 124.615,185.353 
		121.783,189.363 123.481,193.969 118.792,192.514 114.936,195.552 114.871,190.644 	"/>
	<polygon style="fill:#FFFFFF;" points="116.699,234.14 119.935,230.448 118.728,225.69 123.239,227.626 127.391,225.008 
		126.944,229.896 130.717,233.036 125.929,234.121 124.109,238.68 121.598,234.462 	"/>
	<polygon style="fill:#FFFFFF;" points="144.929,271.216 145.886,266.401 142.461,262.884 147.336,262.305 149.623,257.962 
		151.679,262.419 156.517,263.252 152.913,266.585 153.616,271.443 149.333,269.046 	"/>
	<polygon style="fill:#FFFFFF;" points="187.915,289.21 186.336,284.562 181.612,283.228 185.544,280.29 185.353,275.385 
		189.363,278.217 193.969,276.519 192.514,281.208 195.552,285.064 190.644,285.129 	"/>
	<polygon style="fill:#FFFFFF;" points="234.14,283.301 230.448,280.065 225.69,281.272 227.626,276.761 225.008,272.609 
		229.896,273.056 233.036,269.283 234.121,274.071 238.68,275.891 234.462,278.402 	"/>
	<polygon style="fill:#FFFFFF;" points="271.216,255.071 266.401,254.114 262.884,257.539 262.305,252.664 257.962,250.377 
		262.419,248.321 263.252,243.483 266.585,247.087 271.443,246.384 269.046,250.667 	"/>
	<polygon style="fill:#FFFFFF;" points="289.21,212.085 284.562,213.664 283.228,218.388 280.29,214.456 275.385,214.647 
		278.217,210.637 276.519,206.031 281.208,207.486 285.064,204.448 285.129,209.356 	"/>
	<polygon style="fill:#FFFFFF;" points="283.301,165.86 280.065,169.552 281.272,174.31 276.761,172.374 272.609,174.992 
		273.056,170.104 269.283,166.964 274.071,165.879 275.891,161.32 278.402,165.538 	"/>
	<polygon style="fill:#FFFFFF;" points="255.071,128.784 254.114,133.599 257.539,137.116 252.664,137.695 250.377,142.038 
		248.321,137.581 243.483,136.748 247.087,133.415 246.384,128.557 250.667,130.954 	"/>
</g>
<g>
	<polygon style="fill:#FFFFFF;" points="209.981,126.315 211.286,130.154 215.188,131.256 211.94,133.683 212.098,137.734 
		208.786,135.395 204.982,136.797 206.183,132.925 203.674,129.74 207.728,129.686 	"/>
	<polygon style="fill:#FFFFFF;" points="171.802,131.196 174.851,133.869 178.781,132.872 177.182,136.598 179.344,140.027 
		175.307,139.658 172.713,142.774 171.817,138.82 168.051,137.316 171.535,135.242 	"/>
	<polygon style="fill:#FFFFFF;" points="141.178,154.513 145.155,155.303 148.06,152.475 148.538,156.501 152.125,158.39 
		148.444,160.089 147.756,164.084 145.003,161.108 140.99,161.689 142.97,158.15 	"/>
	<polygon style="fill:#FFFFFF;" points="126.315,190.019 130.154,188.714 131.256,184.812 133.683,188.06 137.734,187.902 
		135.395,191.214 136.797,195.018 132.925,193.817 129.74,196.326 129.686,192.272 	"/>
	<polygon style="fill:#FFFFFF;" points="131.196,228.198 133.869,225.149 132.872,221.219 136.598,222.818 140.027,220.656 
		139.658,224.693 142.774,227.287 138.82,228.183 137.316,231.949 135.242,228.465 	"/>
	<polygon style="fill:#FFFFFF;" points="154.513,258.822 155.303,254.845 152.475,251.94 156.501,251.462 158.39,247.875 
		160.089,251.556 164.084,252.244 161.108,254.997 161.689,259.01 158.15,257.03 	"/>
	<polygon style="fill:#FFFFFF;" points="190.019,273.685 188.714,269.846 184.812,268.744 188.06,266.317 187.902,262.266 
		191.214,264.605 195.018,263.203 193.817,267.075 196.326,270.26 192.272,270.314 	"/>
	<polygon style="fill:#FFFFFF;" points="228.198,268.804 225.149,266.131 221.219,267.128 222.818,263.402 220.656,259.973 
		224.693,260.342 227.287,257.226 228.183,261.18 231.949,262.684 228.465,264.758 	"/>
	<polygon style="fill:#FFFFFF;" points="258.822,245.487 254.845,244.697 251.94,247.525 251.462,243.499 247.875,241.61 
		251.556,239.911 252.244,235.916 254.997,238.892 259.01,238.311 257.03,241.85 	"/>
	<polygon style="fill:#FFFFFF;" points="273.685,209.981 269.846,211.286 268.744,215.188 266.317,211.94 262.266,212.098 
		264.605,208.786 263.203,204.982 267.075,206.183 270.26,203.674 270.314,207.728 	"/>
	<polygon style="fill:#FFFFFF;" points="268.804,171.802 266.131,174.851 267.128,178.781 263.402,177.182 259.973,179.344 
		260.342,175.307 257.226,172.713 261.18,171.817 262.684,168.051 264.758,171.535 	"/>
	<polygon style="fill:#FFFFFF;" points="245.487,141.178 244.697,145.155 247.525,148.06 243.499,148.538 241.61,152.125 
		239.911,148.444 235.916,147.756 238.892,145.003 238.311,140.99 241.85,142.97 	"/>
</g>
<g>
	<polygon style="fill:#FFFFFF;" points="208.244,139.138 209.322,142.309 212.545,143.219 209.862,145.224 209.992,148.57 
		207.257,146.638 204.115,147.797 205.107,144.598 203.034,141.967 206.383,141.922 	"/>
	<polygon style="fill:#FFFFFF;" points="176.709,143.17 179.228,145.378 182.474,144.554 181.153,147.632 182.939,150.464 
		179.604,150.159 177.462,152.733 176.722,149.467 173.611,148.225 176.489,146.512 	"/>
	<polygon style="fill:#FFFFFF;" points="151.415,162.429 154.699,163.082 157.099,160.746 157.494,164.071 160.457,165.631 
		157.416,167.034 156.848,170.335 154.574,167.876 151.259,168.356 152.895,165.433 	"/>
	<polygon style="fill:#FFFFFF;" points="139.138,191.756 142.309,190.678 143.219,187.455 145.224,190.138 148.57,190.008 
		146.638,192.743 147.797,195.885 144.598,194.893 141.967,196.966 141.922,193.617 	"/>
	<polygon style="fill:#FFFFFF;" points="143.17,223.291 145.378,220.772 144.554,217.526 147.632,218.847 150.464,217.061 
		150.159,220.396 152.733,222.538 149.467,223.278 148.225,226.389 146.512,223.511 	"/>
	<polygon style="fill:#FFFFFF;" points="162.429,248.585 163.082,245.301 160.746,242.901 164.071,242.506 165.631,239.543 
		167.034,242.584 170.335,243.152 167.876,245.426 168.356,248.741 165.433,247.105 	"/>
	<polygon style="fill:#FFFFFF;" points="191.756,260.862 190.678,257.691 187.455,256.781 190.138,254.776 190.008,251.43 
		192.743,253.362 195.885,252.203 194.893,255.402 196.966,258.033 193.617,258.078 	"/>
	<polygon style="fill:#FFFFFF;" points="223.291,256.83 220.772,254.622 217.526,255.446 218.847,252.368 217.061,249.536 
		220.396,249.841 222.538,247.267 223.278,250.533 226.389,251.775 223.511,253.488 	"/>
	<polygon style="fill:#FFFFFF;" points="248.585,237.571 245.301,236.918 242.901,239.254 242.506,235.929 239.543,234.369 
		242.584,232.966 243.152,229.665 245.426,232.124 248.741,231.644 247.105,234.567 	"/>
	<polygon style="fill:#FFFFFF;" points="260.862,208.244 257.691,209.322 256.781,212.545 254.776,209.862 251.43,209.992 
		253.362,207.257 252.203,204.115 255.402,205.107 258.033,203.034 258.078,206.383 	"/>
	<polygon style="fill:#FFFFFF;" points="256.83,176.709 254.622,179.228 255.446,182.474 252.368,181.153 249.536,182.939 
		249.841,179.604 247.267,177.462 250.533,176.722 251.775,173.611 253.488,176.489 	"/>
	<polygon style="fill:#FFFFFF;" points="237.571,151.415 236.918,154.699 239.254,157.099 235.929,157.494 234.369,160.457 
		232.966,157.416 229.665,156.848 232.124,154.574 231.644,151.259 234.567,152.895 	"/>
</g>
</svg>
